erDiagram

    CLIENT {
        int id_client PK
        string nom_client
        string email_client
    }

    COMMANDE {
        int numero_commande PK
        date date_commande
    }

    PRODUIT {
        int id_produit PK
        string nom_produit
        decimal prix_produit
    }

    CLIENT ||--o{ COMMANDE : "passe"
    COMMANDE }o--o{ PRODUIT : "contient"